<?xml version="1.0" encoding="utf-8"?>
<svg xmlns="http://www.w3.org/2000/svg"
	xmlns:xlink="http://www.w3.org/1999/xlink"
	width="12px" height="12px" viewBox="0 0 12 12">
<filter filterUnits="objectBoundingBox" x="0.00" y="0.00" width="100.00" height="100.00" id="filter0">
<feFlood flood-color="rgb(153,161,179)" result="coFloodOut1"/>
<feComposite in="coFloodOut1" in2="SourceAlpha" operator="in" result="coOverlay1"/>
<feBlend in="coOverlay1" in2="SourceGraphic" mode="normal" result="colorOverlay1"/>
</filter>
<path fillRule="evenodd" d="M 6.79 6.8C 6.79 6.8 6.79 10.8 6.79 10.8 6.79 11.02 6.61 11.21 6.39 11.21 6.39 11.21 5.59 11.21 5.59 11.21 5.37 11.21 5.18 11.02 5.18 10.8 5.18 10.8 5.18 6.8 5.18 6.8 5.18 6.8 1.19 6.8 1.19 6.8 0.97 6.8 0.78 6.62 0.78 6.4 0.78 6.4 0.78 5.59 0.78 5.59 0.78 5.37 0.97 5.19 1.19 5.19 1.19 5.19 5.18 5.19 5.18 5.19 5.18 5.19 5.18 1.2 5.18 1.2 5.18 0.98 5.37 0.8 5.59 0.8 5.59 0.8 6.39 0.8 6.39 0.8 6.61 0.8 6.79 0.98 6.79 1.2 6.79 1.2 6.79 5.2 6.79 5.2 6.79 5.2 10.79 5.2 10.79 5.2 11.01 5.2 11.2 5.38 11.2 5.61 11.2 5.61 11.2 6.4 11.2 6.4 11.2 6.62 11.01 6.8 10.79 6.8 10.79 6.8 6.79 6.8 6.79 6.8Z" fill="rgb(153,161,179)" filter="url(#filter0)"/></svg>