<?xml version="1.0" encoding="utf-8"?>
<svg xmlns="http://www.w3.org/2000/svg"
	xmlns:xlink="http://www.w3.org/1999/xlink"
	width="22px" height="17px" viewBox="0 0 22 17">
<filter filterUnits="objectBoundingBox" x="0.00" y="0.00" width="100.00" height="100.00" id="filter0">
<feFlood flood-color="rgb(153,161,179)" result="coFloodOut1"/>
<feComposite in="coFloodOut1" in2="SourceAlpha" operator="in" result="coOverlay1"/>
<feBlend in="coOverlay1" in2="SourceGraphic" mode="normal" result="colorOverlay1"/>
</filter>
<path fillRule="evenodd" d="M 21.34 15.23C 21.34 15.23 6.37 15.23 6.37 15.23 6.37 15.23 6.37 15.22 6.37 15.22 6.37 15.61 6.07 16.74 5.72 16.74 5.72 16.74 4.44 16.74 4.44 16.74 4.08 16.74 3.79 15.61 3.79 15.22 3.79 15.22 3.79 15.23 3.79 15.23 3.79 15.23 0.66 15.23 0.66 15.23 0.3 15.23 0.01 14.92 0.01 14.53 0.01 14.53 0.01 13.42 0.01 13.42 0.01 13.04 0.3 12.72 0.66 12.72 0.66 12.72 3.79 12.72 3.79 12.72 3.79 12.72 3.79 12.75 3.79 12.75 3.79 12.36 4.08 11.2 4.44 11.2 4.44 11.2 5.72 11.2 5.72 11.2 6.07 11.2 6.37 12.36 6.37 12.75 6.37 12.75 6.37 12.75 6.37 12.75 6.37 12.75 21.34 12.75 21.34 12.75 21.7 12.75 21.99 13.06 21.99 13.44 21.99 13.44 21.99 14.53 21.99 14.53 21.99 14.92 21.7 15.23 21.34 15.23ZM 21.34 9.74C 21.34 9.74 19.84 9.74 19.84 9.74 19.84 9.74 19.84 9.73 19.84 9.73 19.84 10.12 19.55 11.22 19.19 11.22 19.19 11.22 17.91 11.22 17.91 11.22 17.55 11.22 17.26 10.12 17.26 9.73 17.26 9.73 17.26 9.74 17.26 9.74 17.26 9.74 0.66 9.74 0.66 9.74 0.3 9.74 0.01 9.43 0.01 9.04 0.01 9.04 0.01 7.93 0.01 7.93 0.01 7.55 0.3 7.23 0.66 7.23 0.66 7.23 17.26 7.23 17.26 7.23 17.26 7.23 17.26 7.29 17.26 7.29 17.26 6.9 17.55 5.68 17.91 5.68 17.91 5.68 19.19 5.68 19.19 5.68 19.55 5.68 19.84 6.87 19.84 7.26 19.84 7.26 19.84 7.26 19.84 7.26 19.84 7.26 21.34 7.26 21.34 7.26 21.7 7.26 21.99 7.57 21.99 7.96 21.99 7.96 21.99 9.04 21.99 9.04 21.99 9.43 21.7 9.74 21.34 9.74ZM 21.34 4.22C 21.34 4.22 4.74 4.22 4.74 4.22 4.74 4.22 4.74 4.21 4.74 4.21 4.74 4.6 4.44 5.7 4.09 5.7 4.09 5.7 2.81 5.7 2.81 5.7 2.45 5.7 2.16 4.6 2.16 4.21 2.16 4.21 2.16 4.22 2.16 4.22 2.16 4.22 0.66 4.22 0.66 4.22 0.3 4.22 0.01 3.91 0.01 3.52 0.01 3.52 0.01 2.41 0.01 2.41 0.01 2.03 0.3 1.71 0.66 1.71 0.66 1.71 2.16 1.71 2.16 1.71 2.16 1.71 2.16 1.74 2.16 1.74 2.16 1.35 2.45 0.16 2.81 0.16 2.81 0.16 4.09 0.16 4.09 0.16 4.44 0.16 4.74 1.35 4.74 1.74 4.74 1.74 4.74 1.74 4.74 1.74 4.74 1.74 21.34 1.74 21.34 1.74 21.7 1.74 21.99 2.05 21.99 2.44 21.99 2.44 21.99 3.52 21.99 3.52 21.99 3.91 21.7 4.22 21.34 4.22Z" fill="rgb(153,161,179)" filter="url(#filter0)"/></svg>